<svg xmlns="http://www.w3.org/2000/svg" width="900" height="1200" viewBox="0 0 900 1200" role="img" aria-label="Chairman portrait illustration">
  <defs>
    <linearGradient id="bg" x1="0" y1="0" x2="1" y2="1">
      <stop offset="0" stop-color="#f5efe2"/>
      <stop offset="0.52" stop-color="#e9dcc0"/>
      <stop offset="1" stop-color="#17305c"/>
    </linearGradient>
    <linearGradient id="suit" x1="0" y1="0" x2="1" y2="1">
      <stop offset="0" stop-color="#18233f"/>
      <stop offset="1" stop-color="#0d1730"/>
    </linearGradient>
    <filter id="softShadow" x="-20%" y="-20%" width="140%" height="140%">
      <feDropShadow dx="0" dy="28" stdDeviation="28" flood-color="#111827" flood-opacity="0.28"/>
    </filter>
  </defs>
  <rect width="900" height="1200" fill="url(#bg)"/>
  <circle cx="725" cy="145" r="210" fill="#c59a35" opacity="0.2"/>
  <circle cx="110" cy="1020" r="260" fill="#ffffff" opacity="0.17"/>
  <g filter="url(#softShadow)">
    <path d="M188 1047c32-213 150-326 262-326s230 113 262 326H188Z" fill="url(#suit)"/>
    <path d="M333 785l117 165 117-165c-24-35-46-52-117-52s-93 17-117 52Z" fill="#f8f3ea"/>
    <path d="M397 899h106l33 148H364l33-148Z" fill="#b88722" opacity="0.92"/>
    <path d="M286 1047c24-130 69-217 136-283l28 186 28-186c67 66 112 153 136 283H286Z" fill="#1f2d50" opacity="0.98"/>
    <ellipse cx="450" cy="475" rx="188" ry="228" fill="#c99466"/>
    <path d="M285 446c14-153 90-242 212-242 82 0 151 45 183 124 22 55 21 117 12 166-44-63-98-92-163-93-73-2-135 26-244 45Z" fill="#1c2334"/>
    <path d="M292 496c-38-12-63 17-50 70 10 43 38 71 72 66l-22-136Zm316 0c38-12 63 17 50 70-10 43-38 71-72 66l22-136Z" fill="#bd895d"/>
    <path d="M365 604c45 42 124 42 170 0" fill="none" stroke="#8a5a3c" stroke-width="12" stroke-linecap="round" opacity="0.45"/>
    <path d="M360 500c28-22 61-22 92-3m96 3c-28-22-61-22-92-3" fill="none" stroke="#2b2230" stroke-width="11" stroke-linecap="round" opacity="0.75"/>
    <path d="M410 544c8 8 21 13 40 13s32-5 40-13" fill="none" stroke="#8a5a3c" stroke-width="10" stroke-linecap="round" opacity="0.35"/>
  </g>
  <path d="M78 90h744v1020H78V90Z" fill="none" stroke="#f7f1e8" stroke-width="26" opacity="0.56"/>
  <path d="M104 116h692v968H104V116Z" fill="none" stroke="#b88722" stroke-width="4" opacity="0.6"/>
</svg>