<svg xmlns="http://www.w3.org/2000/svg" width="720" height="900" viewBox="0 0 720 900" role="img" aria-label="Leadership portrait illustration">
  <defs>
    <linearGradient id="bg" x1="0" y1="0" x2="1" y2="1">
      <stop offset="0" stop-color="#f5efe2"/>
      <stop offset="1" stop-color="#29345f"/>
    </linearGradient>
    <linearGradient id="suit" x1="0" y1="0" x2="1" y2="1">
      <stop offset="0" stop-color="#1e2848"/>
      <stop offset="1" stop-color="#111a33"/>
    </linearGradient>
    <filter id="shadow" x="-20%" y="-20%" width="140%" height="140%">
      <feDropShadow dx="0" dy="20" stdDeviation="20" flood-color="#111827" flood-opacity="0.22"/>
    </filter>
  </defs>
  <rect width="720" height="900" rx="36" fill="url(#bg)"/>
  <circle cx="594" cy="102" r="150" fill="#b88722" opacity="0.22"/>
  <circle cx="98" cy="768" r="190" fill="#ffffff" opacity="0.16"/>
  <g filter="url(#shadow)">
    <path d="M142 818c26-168 112-254 218-254s192 86 218 254H142Z" fill="url(#suit)"/>
    <path d="M270 614l90 132 90-132c-22-26-48-40-90-40s-68 14-90 40Z" fill="#f8f3ea"/>
    <path d="M316 708h88l26 110H290l26-110Z" fill="#b88722" opacity="0.9"/>
    <ellipse cx="360" cy="365" rx="142" ry="176" fill="#c9956a"/>
    <path d="M235 352c8-125 73-196 162-196 77 0 134 43 155 112 13 43 10 91 2 129-35-48-79-72-134-74-62-3-112 19-185 29Z" fill="#20283a"/>
    <path d="M254 404c-29-8-48 16-37 57 8 34 29 56 55 52l-18-109Zm212 0c29-8 48 16 37 57-8 34-29 56-55 52l18-109Z" fill="#bd895d"/>
    <path d="M302 462c35 30 82 30 117 0" fill="none" stroke="#87593e" stroke-width="9" stroke-linecap="round" opacity="0.42"/>
    <path d="M294 382c22-15 48-15 72-2m88 2c-22-15-48-15-72-2" fill="none" stroke="#2b2230" stroke-width="9" stroke-linecap="round" opacity="0.72"/>
  </g>
  <path d="M54 58h612v784H54V58Z" fill="none" stroke="#fffaf0" stroke-width="18" opacity="0.52"/>
  <path d="M76 80h568v740H76V80Z" fill="none" stroke="#b88722" stroke-width="4" opacity="0.58"/>
</svg>